# xmcd CD database file
#
# Track frame offsets:
#	150
#	26853
#	46819
#	74550
#	96463
#	129054
#	153749
#	219971
#	246839
#	280311
#
# Disc length: 4230 seconds
#
# Revision: 0
# Processed by: cddbd v1.5.2PL0 Copyright (c) Steve Scherf et al.
# Submitted via: CDex 1.51
#
DISCID=9110840a
DTITLE=Herbie Mann - Yardbird Suite - Flute Soulffle
DYEAR=1957
DGENRE=Jazz
TTITLE0=Yardbird Suite
TTITLE1=Here's That Mann
TTITLE2=One for Tubby
TTITLE3=Squire's Parlor
TTITLE4=Who Knew
TTITLE5=Opicana
TTITLE6=Tel Aviv
TTITLE7=Somewhere Else
TTITLE8=Let's march
TTITLE9=Chasin' the Bird
EXTD=YEAR: 1957
EXTT0=
EXTT1=
EXTT2=
EXTT3=
EXTT4=
EXTT5=
EXTT6=
EXTT7=
EXTT8=
EXTT9=
PLAYORDER=
